<?xml version="1.0" encoding="utf-8"?>
<!-- Generator: Adobe Illustrator 26.4.1, SVG Export Plug-In . SVG Version: 6.00 Build 0)  -->
<svg version="1.1" id="레이어_1" xmlns="http://www.w3.org/2000/svg" xmlns:xlink="http://www.w3.org/1999/xlink" x="0px"
	 y="0px" viewBox="0 0 15 18" style="enable-background:new 0 0 15 18;" xml:space="preserve">
<style type="text/css">
	.st0{fill:#FFFFFF;}
</style>
<path class="st0" d="M10.3,9.7c0.6-0.5,0.8-1.3,1.8-1.4c-0.2,1.5,0.6,2.5,1.3,3.7c1.5,2.3,1,3.8-1.4,5c-3.8,1.9-7.2,1.2-9.9-2.1
	c-1.9-2.3-1.9-4.4,0.3-6.5c1.7-1.7,3.9-2.8,5.9-4.1c1.4-0.9,2.4-2,2.2-4.3c1.5,1.4,1.7,2.8,1.2,4.3c-0.4,1.1-1,2-1.5,3
	C9.9,8.1,9.6,8.8,10.3,9.7z"/>
</svg>
